<svg width="33" height="32" viewBox="0 0 33 32" fill="none" xmlns="http://www.w3.org/2000/svg">
<rect x="0.875" y="0.875061" width="18.6176" height="30.25" rx="1.4453" stroke="#222222" stroke-width="1.75"/>
<circle cx="6.48828" cy="6.57788" r="1" fill="#222222"/>
<circle cx="6.48828" cy="11.2323" r="1" fill="#222222"/>
<circle cx="6.48828" cy="15.887" r="1" fill="#222222"/>
<circle cx="13.4867" cy="6.57788" r="1" fill="#222222"/>
<circle cx="13.4867" cy="11.2323" r="1" fill="#222222"/>
<circle cx="25.0433" cy="11.2323" r="1" fill="#222222"/>
<circle cx="13.4867" cy="15.887" r="1" fill="#222222"/>
<circle cx="25.0433" cy="15.8729" r="1" fill="#222222"/>
<path d="M6.64185 24.4807C6.64185 23.6825 7.28893 23.0354 8.08715 23.0354H12.2035C13.0017 23.0354 13.6488 23.6825 13.6488 24.4807V31.125H6.64185V24.4807Z" stroke="#222222" stroke-width="1.75"/>
<path fill-rule="evenodd" clip-rule="evenodd" d="M18.8633 7.49169H29.8527C30.173 7.49169 30.4327 7.7514 30.4327 8.07176V29.6798C30.4327 30.0001 30.173 30.2598 29.8527 30.2598H18.5846C18.327 31.2606 17.4186 32.0001 16.3374 32.0001H29.8527C31.1341 32.0001 32.173 30.9612 32.173 29.6798V8.07176C32.173 6.7903 31.1341 5.75146 29.8527 5.75146H18.8633V7.49169Z" fill="#222222"/>
</svg>
