<svg width="32" height="32" viewBox="0 0 32 32" fill="none" xmlns="http://www.w3.org/2000/svg">
<line x1="0.98291" y1="5.49646" x2="31.0172" y2="5.49646" stroke="#222222" stroke-width="1.75"/>
<line x1="12.8896" y1="25.5469" x2="19.0677" y2="25.5469" stroke="#222222" stroke-width="1.75"/>
<line x1="11.0376" y1="29.4886" x2="20.9248" y2="29.4886" stroke="#222222" stroke-width="1.75"/>
<line x1="27.9609" y1="6.37146" x2="27.9609" y2="1.63647" stroke="#222222" stroke-width="1.75"/>
<mask id="path-5-inside-1_76_42318" fill="white">
<path d="M3.01172 5.07129H28.8359V21.4211C28.8359 21.9734 28.3882 22.4211 27.8359 22.4211H4.01172C3.45943 22.4211 3.01172 21.9734 3.01172 21.4211V5.07129Z"/>
</mask>
<path d="M3.01172 5.07129H28.8359V21.4211C28.8359 21.9734 28.3882 22.4211 27.8359 22.4211H4.01172C3.45943 22.4211 3.01172 21.9734 3.01172 21.4211V5.07129Z" stroke="#222222" stroke-width="3.5" mask="url(#path-5-inside-1_76_42318)"/>
<mask id="path-6-inside-2_76_42318" fill="white">
<path d="M12.1106 12.6792C12.1106 12.1269 12.5583 11.6792 13.1106 11.6792H18.8654C19.4177 11.6792 19.8654 12.1269 19.8654 12.6792V22.4212H12.1106V12.6792Z"/>
</mask>
<path d="M12.1106 12.6792C12.1106 12.1269 12.5583 11.6792 13.1106 11.6792H18.8654C19.4177 11.6792 19.8654 12.1269 19.8654 12.6792V22.4212H12.1106V12.6792Z" stroke="#222222" stroke-width="3.5" mask="url(#path-6-inside-2_76_42318)"/>
<circle cx="24.0229" cy="9.56018" r="1" fill="#222222"/>
</svg>
