<svg width="32" height="30" viewBox="0 0 32 30" fill="none" xmlns="http://www.w3.org/2000/svg">
<path d="M18.2689 0.749746L18.4503 0.919739L32 14.2311L30.5468 15.7092L28.681 13.8766L28.682 27.927C28.682 29.0195 27.8362 29.9151 26.7634 29.9938L26.609 30.0001H5.87802C4.7855 30.0001 3.88992 29.1542 3.81011 28.0814L3.80493 27.927L3.80389 13.8776L1.94018 15.7092L0.486938 14.2311L14.0222 0.933215C15.1758 -0.244303 17.0364 -0.309605 18.2689 0.749746ZM15.5884 2.30871L15.4889 2.39889L5.87698 11.8408L5.87802 27.927L11.0597 27.9259L11.0608 17.5615C11.0608 16.469 11.9066 15.5734 12.9794 15.4936L13.1338 15.4884H19.3531C20.4456 15.4884 21.3412 16.3342 21.421 17.4071L21.4262 17.5615L21.4252 27.9259L26.609 27.927L26.6079 11.8398L16.9691 2.36987C16.5918 1.99982 16.003 1.97702 15.5884 2.30871ZM19.3531 17.5615H13.1338L13.1328 27.9259H19.3521L19.3531 17.5615Z" fill="#222222"/>
</svg>
