<svg width="16" height="16" viewBox="0 0 16 16" fill="none" xmlns="http://www.w3.org/2000/svg">
<g clip-path="url(#clip0_41_11102)">
<path d="M6.66669 2.66667L8.00002 3.33333L9.33335 2.66667" stroke="black" stroke-linecap="round" stroke-linejoin="round"/>
<path d="M8 1.33333V5.66667L10 6.81333" stroke="black" stroke-linecap="round" stroke-linejoin="round"/>
<path d="M11.9531 4.17839L12.0425 5.66639L13.2865 6.48772" stroke="black" stroke-linecap="round" stroke-linejoin="round"/>
<path d="M13.7735 4.66667L10.0208 6.83333L10.0275 9.13867" stroke="black" stroke-linecap="round" stroke-linejoin="round"/>
<path d="M13.2865 9.51172L12.0425 10.3331L11.9531 11.8211" stroke="black" stroke-linecap="round" stroke-linejoin="round"/>
<path d="M13.7721 11.3333L10.0194 9.16667L8.02606 10.3253" stroke="black" stroke-linecap="round" stroke-linejoin="round"/>
<path d="M9.33335 13.3333L8.00002 12.6667L6.66669 13.3333" stroke="black" stroke-linecap="round" stroke-linejoin="round"/>
<path d="M8 14.6662V10.3329L6 9.1862" stroke="black" stroke-linecap="round" stroke-linejoin="round"/>
<path d="M4.0469 11.8211L3.95756 10.3331L2.71356 9.51172" stroke="black" stroke-linecap="round" stroke-linejoin="round"/>
<path d="M2.22656 11.334L5.97923 9.16731L5.97256 6.86198" stroke="black" stroke-linecap="round" stroke-linejoin="round"/>
<path d="M2.71356 6.48772L3.95756 5.66639L4.0469 4.17839" stroke="black" stroke-linecap="round" stroke-linejoin="round"/>
<path d="M2.22668 4.66667L5.97935 6.83333L7.97268 5.67467" stroke="black" stroke-linecap="round" stroke-linejoin="round"/>
</g>
<defs>
<clipPath id="clip0_41_11102">
<rect width="16" height="16" fill="white"/>
</clipPath>
</defs>
</svg>
