<svg width="16" height="16" viewBox="0 0 16 16" fill="none" xmlns="http://www.w3.org/2000/svg">
<path d="M10.2859 1.61627V10.9097" stroke="black" stroke-width="0.857143" stroke-linecap="round" stroke-linejoin="round"/>
<path d="M11.4058 12.0904L11.4062 12.9628C11.4062 13.2599 11.2881 13.5448 11.078 13.7549C10.8679 13.9649 10.5829 14.0829 10.2858 14.0828C9.98867 14.0828 9.70375 13.9647 9.4937 13.7546C9.28365 13.5444 9.16567 13.2595 9.16573 12.9624L9.16532 12.09C9.16538 11.7929 9.28346 11.508 9.49358 11.2979C9.70371 11.0879 9.98867 10.9699 10.2858 10.9699C10.5829 10.97 10.8678 11.0881 11.0779 11.2982C11.2879 11.5083 11.4059 11.7933 11.4058 12.0904Z" stroke="black" stroke-width="0.857143" stroke-linecap="round" stroke-linejoin="round"/>
<path d="M8.66971 1.61624L8.6293 4.12142C8.63985 4.5538 8.81901 4.96492 9.12855 5.26699C9.43808 5.56907 9.85345 5.73816 10.2859 5.73816C10.7185 5.73816 11.1338 5.56907 11.4434 5.26699C11.7529 4.96492 11.9321 4.5538 11.9426 4.12142L11.9022 1.61624" stroke="black" stroke-width="0.857143" stroke-linecap="round" stroke-linejoin="round"/>
<path d="M5.55878 5.8183V10.9095" stroke="black" stroke-width="0.857143" stroke-linecap="round" stroke-linejoin="round"/>
<path d="M6.67904 12.0904L6.67944 12.9628C6.67939 13.2599 6.56131 13.5448 6.35118 13.7549C6.14105 13.9649 5.85609 14.0829 5.55898 14.0828C5.26187 14.0828 4.97695 13.9647 4.7669 13.7546C4.55684 13.5444 4.43887 13.2595 4.43892 12.9624L4.43852 12.09C4.43857 11.7929 4.55665 11.508 4.76678 11.2979C4.9769 11.0879 5.26187 10.9699 5.55898 10.9699C5.85609 10.97 6.14101 11.0881 6.35106 11.2982C6.56111 11.5083 6.67909 11.7933 6.67904 12.0904Z" stroke="black" stroke-width="0.857143" stroke-linecap="round" stroke-linejoin="round"/>
<path d="M3.9429 1.61624L3.90249 4.12142C3.91304 4.5538 4.09221 4.96492 4.40174 5.26699C4.71127 5.56907 5.12664 5.73816 5.55914 5.73816C5.99165 5.73816 6.40701 5.56907 6.71655 5.26699C7.02608 4.96492 7.20525 4.5538 7.21579 4.12142L7.17539 1.61624H3.9429Z" stroke="black" stroke-width="0.857143" stroke-linecap="round" stroke-linejoin="round"/>
</svg>
