<svg width="16" height="16" viewBox="0 0 16 16" fill="none" xmlns="http://www.w3.org/2000/svg">
<g clip-path="url(#clip0_60_2748)">
<path d="M2 9.33305C2.55333 9.76105 3.38467 10.0111 4.33333 9.99972C5.282 10.0111 6.11333 9.76105 6.66667 9.33305C7.22 8.90505 8.05133 8.65505 9 8.66639C9.94867 8.65505 10.78 8.90505 11.3333 9.33305" stroke="black" stroke-linecap="round" stroke-linejoin="round"/>
<path d="M5.3337 2C5.12271 2.15145 4.95175 2.35198 4.8356 2.58428C4.71945 2.81658 4.6616 3.07367 4.66704 3.33333C4.6616 3.593 4.71945 3.85008 4.8356 4.08238C4.95175 4.31469 5.12271 4.51522 5.3337 4.66667" stroke="black" stroke-linecap="round" stroke-linejoin="round"/>
<path d="M8.00033 2C7.78934 2.15145 7.61838 2.35198 7.50223 2.58428C7.38608 2.81658 7.32822 3.07367 7.33366 3.33333C7.32822 3.593 7.38608 3.85008 7.50223 4.08238C7.61838 4.31469 7.78934 4.51522 8.00033 4.66667" stroke="black" stroke-linecap="round" stroke-linejoin="round"/>
<path d="M2 6.66669H11.3333V10C11.3333 11.0609 10.9119 12.0783 10.1618 12.8284C9.41162 13.5786 8.3942 14 7.33333 14H6C4.93913 14 3.92172 13.5786 3.17157 12.8284C2.42143 12.0783 2 11.0609 2 10V6.66669Z" stroke="black" stroke-linecap="round" stroke-linejoin="round"/>
<path d="M11.1641 11.1509C11.4618 11.2876 11.7885 11.3491 12.1156 11.3299C12.4426 11.3107 12.76 11.2115 13.0397 11.0409C13.3194 10.8704 13.5529 10.6337 13.7197 10.3518C13.8866 10.0698 13.9816 9.75122 13.9964 9.42395C14.0113 9.09668 13.9455 8.77078 13.8049 8.47488C13.6643 8.17899 13.4531 7.92217 13.19 7.72699C12.9269 7.53182 12.6198 7.40427 12.2959 7.35555C11.9719 7.30683 11.6409 7.33844 11.3321 7.4476" stroke="black" stroke-linecap="round" stroke-linejoin="round"/>
</g>
<defs>
<clipPath id="clip0_60_2748">
<rect width="16" height="16" fill="white"/>
</clipPath>
</defs>
</svg>
