<svg width="16" height="18" viewBox="0 0 16 18" fill="none" xmlns="http://www.w3.org/2000/svg">
<g clip-path="url(#clip0_62_35626)">
<path d="M2.69645 15.7232H11.2143C12.1384 15.7232 12.7612 15.087 12.7612 14.1295V3.26115C12.7612 2.30356 12.1384 1.66071 11.2143 1.66071H2.69645C1.76565 1.66071 1.14288 2.30356 1.14288 3.26115V14.1295C1.14288 15.087 1.76565 15.7232 2.69645 15.7232ZM2.22101 14.116V3.27455C2.22101 2.95312 2.43529 2.73883 2.74333 2.73883H11.1607C11.4755 2.73883 11.6831 2.95312 11.6831 3.27455V14.116C11.6831 14.4375 11.4755 14.6451 11.1607 14.6451H2.74333C2.43529 14.6451 2.22101 14.4375 2.22101 14.116ZM3.66744 4.54017C3.99556 4.54017 4.25672 4.27231 4.25672 3.94419C4.25672 3.62276 3.99556 3.3549 3.66744 3.3549C3.34601 3.3549 3.07815 3.62276 3.07815 3.94419C3.07815 4.27231 3.34601 4.54017 3.66744 4.54017ZM5.37503 4.54017C5.70315 4.54017 5.96431 4.27231 5.96431 3.94419C5.96431 3.62276 5.70315 3.3549 5.37503 3.3549C5.0536 3.3549 4.79244 3.62276 4.79244 3.94419C4.79244 4.27231 5.0536 4.54017 5.37503 4.54017ZM1.73217 6.03347H12.1786V5.15624H1.73217V6.03347ZM5.37503 7.51336H8.53574C8.73665 7.51336 8.87054 7.37273 8.87054 7.17188C8.87054 6.97096 8.73665 6.83702 8.53574 6.83702H5.37503C5.17413 6.83702 5.03351 6.97096 5.03351 7.17188C5.03351 7.37273 5.17413 7.51336 5.37503 7.51336ZM1.63842 13.8683H12.2724V12.9911H1.63842V13.8683Z" fill="black" fill-opacity="0.85"/>
<path d="M9.2924 17.0826C11.4822 17.0826 13.2567 15.3147 13.2567 13.1183C13.2567 10.9152 11.4822 9.15399 9.2924 9.15399C7.08926 9.15399 5.32812 10.9152 5.32812 13.1183C5.32812 15.3147 7.08926 17.0826 9.2924 17.0826ZM10.6652 17.0826C12.8616 17.0826 14.6295 15.3147 14.6295 13.1183C14.6295 10.9152 12.8616 9.15399 10.6652 9.15399C8.46874 9.15399 6.70089 10.9152 6.70089 13.1183C6.70089 15.3147 8.46874 17.0826 10.6652 17.0826Z" fill="white"/>
<path d="M10.6652 16.2991C12.4331 16.2991 13.8527 14.8862 13.8527 13.1183C13.8527 11.3438 12.4331 9.93079 10.6652 9.93079C8.89735 9.93079 7.48444 11.3438 7.48444 13.1183C7.48444 14.8862 8.89735 16.2991 10.6652 16.2991ZM10.6652 15.6227C9.23215 15.6227 8.16072 14.5446 8.16072 13.1183C8.16072 11.6852 9.23215 10.6071 10.6652 10.6071C12.0983 10.6071 13.1764 11.6852 13.1764 13.1183C13.1764 14.5446 12.0983 15.6227 10.6652 15.6227Z" fill="black" fill-opacity="0.85"/>
<path d="M9.29241 16.2991C11.0536 16.2991 12.4732 14.8862 12.4732 13.1183C12.4732 11.3438 11.0536 9.93079 9.29241 9.93079C7.52458 9.93079 6.10492 11.3438 6.10492 13.1183C6.10492 14.8862 7.52458 16.2991 9.29241 16.2991Z" fill="white"/>
<path d="M9.29241 16.2991C11.0536 16.2991 12.4732 14.8862 12.4732 13.1183C12.4732 11.3438 11.0536 9.93079 9.29241 9.93079C7.52458 9.93079 6.10492 11.3438 6.10492 13.1183C6.10492 14.8862 7.52458 16.2991 9.29241 16.2991ZM9.29241 15.6227C7.8527 15.6227 6.78126 14.5446 6.78126 13.1183C6.78126 11.6852 7.8527 10.6071 9.29241 10.6071C10.7188 10.6071 11.7969 11.6852 11.7969 13.1183C11.7969 14.5446 10.7188 15.6227 9.29241 15.6227ZM9.29241 15.1205C10.3906 15.1205 11.2946 14.2232 11.2946 13.1183C11.2946 12.0134 10.3906 11.116 9.29241 11.116C8.18081 11.116 7.2835 12.0134 7.2835 13.1183C7.2835 14.2232 8.18081 15.1205 9.29241 15.1205ZM9.29241 14.5111C8.47544 14.5111 7.89287 13.9286 7.89287 13.1183C7.89287 12.3013 8.47544 11.7254 9.29241 11.7254C10.1094 11.7254 10.6853 12.3013 10.6853 13.1183C10.6853 13.9352 10.1027 14.5111 9.29241 14.5111Z" fill="black" fill-opacity="0.85"/>
</g>
<defs>
<clipPath id="clip0_62_35626">
<rect width="13.4866" height="16.654" fill="white" transform="translate(1.14288 0.428589)"/>
</clipPath>
</defs>
</svg>
