<svg width="16" height="16" viewBox="0 0 16 16" fill="none" xmlns="http://www.w3.org/2000/svg">
<g clip-path="url(#clip0_43_11280)">
<path d="M2 4C2 3.46957 2.21071 2.96086 2.58579 2.58579C2.96086 2.21071 3.46957 2 4 2H12C12.5304 2 13.0391 2.21071 13.4142 2.58579C13.7893 2.96086 14 3.46957 14 4V12C14 12.5304 13.7893 13.0391 13.4142 13.4142C13.0391 13.7893 12.5304 14 12 14H4C3.46957 14 2.96086 13.7893 2.58579 13.4142C2.21071 13.0391 2 12.5304 2 12V4Z" stroke="black" stroke-linecap="round" stroke-linejoin="round"/>
<path d="M8 4.66666V11.3333" stroke="black" stroke-linecap="round" stroke-linejoin="round"/>
<path d="M10.6667 4.66666V11.3333" stroke="black" stroke-linecap="round" stroke-linejoin="round"/>
<path d="M5.33331 4.66666V11.3333" stroke="black" stroke-linecap="round" stroke-linejoin="round"/>
</g>
<defs>
<clipPath id="clip0_43_11280">
<rect width="16" height="16" fill="white"/>
</clipPath>
</defs>
</svg>
