<svg width="16" height="16" viewBox="0 0 16 16" fill="none" xmlns="http://www.w3.org/2000/svg">
<path d="M8 2C7.35352 2 6.80273 2.42188 6.59375 3H6C4.62695 3 3.5 4.12695 3.5 5.5H4.5C4.5 4.67188 5.17188 4 6 4H6.5V5.23438C6.33984 5.35352 6.13281 5.52344 5.89062 5.76562C5.47656 6.17969 5 6.75 5 7.5V14H11V7.5C11 6.75 10.5234 6.17969 10.1094 5.76562C9.86719 5.52344 9.66016 5.35352 9.5 5.23438V5.09375L11.9219 5.5L12.5 5.59375V2.40625L11.9219 2.5L9.375 2.92188C9.14648 2.38477 8.61719 2 8 2ZM8 3C8.27734 3 8.5 3.22266 8.5 3.5V5H7.5V3.5C7.5 3.22266 7.72266 3 8 3ZM11.5 3.59375V4.40625L9.5 4.0625V3.9375L11.5 3.59375ZM7.1875 6H8.8125C8.88867 6.05273 9.10156 6.19531 9.39062 6.48438C9.72656 6.82031 10 7.25 10 7.5V13H6V7.5C6 7.25 6.27344 6.82031 6.60938 6.48438C6.89844 6.19531 7.11133 6.05273 7.1875 6ZM7 8.5V9.5H9V8.5H7Z" fill="black"/>
</svg>
