<svg width="16" height="16" viewBox="0 0 16 16" fill="none" xmlns="http://www.w3.org/2000/svg">
<g clip-path="url(#clip0_41_12723)">
<path d="M2 3.33333C2 2.97971 2.14048 2.64057 2.39052 2.39052C2.64057 2.14048 2.97971 2 3.33333 2H12.6667C13.0203 2 13.3594 2.14048 13.6095 2.39052C13.8595 2.64057 14 2.97971 14 3.33333V12.6667C14 13.0203 13.8595 13.3594 13.6095 13.6095C13.3594 13.8595 13.0203 14 12.6667 14H3.33333C2.97971 14 2.64057 13.8595 2.39052 13.6095C2.14048 13.3594 2 13.0203 2 12.6667V3.33333Z" stroke="black" stroke-linecap="round" stroke-linejoin="round"/>
<path d="M6 10.6667V5.33334H8.66667C9.02029 5.33334 9.35943 5.47381 9.60948 5.72386C9.85952 5.97391 10 6.31305 10 6.66667C10 7.02029 9.85952 7.35943 9.60948 7.60948C9.35943 7.85953 9.02029 8 8.66667 8H6" stroke="black" stroke-linecap="round" stroke-linejoin="round"/>
</g>
<defs>
<clipPath id="clip0_41_12723">
<rect width="16" height="16" fill="white"/>
</clipPath>
</defs>
</svg>
