<svg width="16" height="16" viewBox="0 0 16 16" fill="none" xmlns="http://www.w3.org/2000/svg">
<g clip-path="url(#clip0_41_13717)">
<path d="M1.33331 8H1.99998" stroke="black" stroke-linecap="round" stroke-linejoin="round"/>
<path d="M4 5.33333H2.66667C2.48986 5.33333 2.32029 5.40357 2.19526 5.52859C2.07024 5.65361 2 5.82318 2 5.99999V10C2 10.1768 2.07024 10.3464 2.19526 10.4714C2.32029 10.5964 2.48986 10.6667 2.66667 10.6667H4" stroke="black" stroke-linecap="round" stroke-linejoin="round"/>
<path d="M4 4.66667V11.3333C4 11.5101 4.07024 11.6797 4.19526 11.8047C4.32029 11.9298 4.48986 12 4.66667 12H5.33333C5.51014 12 5.67971 11.9298 5.80474 11.8047C5.92976 11.6797 6 11.5101 6 11.3333V4.66667C6 4.48986 5.92976 4.32029 5.80474 4.19526C5.67971 4.07024 5.51014 4 5.33333 4H4.66667C4.48986 4 4.32029 4.07024 4.19526 4.19526C4.07024 4.32029 4 4.48986 4 4.66667Z" stroke="black" stroke-linecap="round" stroke-linejoin="round"/>
<path d="M6 8H10" stroke="black" stroke-linecap="round" stroke-linejoin="round"/>
<path d="M10 4.66667V11.3333C10 11.5101 10.0702 11.6797 10.1953 11.8047C10.3203 11.9298 10.4899 12 10.6667 12H11.3333C11.5101 12 11.6797 11.9298 11.8047 11.8047C11.9298 11.6797 12 11.5101 12 11.3333V4.66667C12 4.48986 11.9298 4.32029 11.8047 4.19526C11.6797 4.07024 11.5101 4 11.3333 4H10.6667C10.4899 4 10.3203 4.07024 10.1953 4.19526C10.0702 4.32029 10 4.48986 10 4.66667Z" stroke="black" stroke-linecap="round" stroke-linejoin="round"/>
<path d="M12 5.33333H13.3333C13.5101 5.33333 13.6797 5.40357 13.8047 5.52859C13.9298 5.65361 14 5.82318 14 5.99999V10C14 10.1768 13.9298 10.3464 13.8047 10.4714C13.6797 10.5964 13.5101 10.6667 13.3333 10.6667H12" stroke="black" stroke-linecap="round" stroke-linejoin="round"/>
<path d="M14.6667 8H14" stroke="black" stroke-width="1.33333" stroke-linecap="round" stroke-linejoin="round"/>
</g>
<defs>
<clipPath id="clip0_41_13717">
<rect width="16" height="16" fill="white"/>
</clipPath>
</defs>
</svg>
