<svg width="16" height="16" viewBox="0 0 16 16" fill="none" xmlns="http://www.w3.org/2000/svg">
<g clip-path="url(#clip0_55_1972)">
<path d="M6.39766 7.1813L7.17066 13.3655C7.25703 14.0564 6.71826 14.6667 6.02196 14.6667C5.43813 14.6667 4.94566 14.232 4.87323 13.6526L4.08203 7.32301" stroke="black" stroke-linecap="round" stroke-linejoin="round"/>
<path d="M4.33331 1.33334C2.67646 1.33334 1.33331 2.67649 1.33331 4.33334C1.33331 5.90558 2.54275 7.19531 4.08201 7.32298C4.16488 7.32984 4.24868 7.33334 4.33331 7.33334C4.85931 7.33334 5.57981 7.27498 6.39765 7.18128L10.5321 6.50731L14.6666 5.83334V2.83334L9.49998 2.08334L4.33331 1.33334Z" stroke="black" stroke-linecap="round" stroke-linejoin="round"/>
<path d="M12.3333 2.73355V5.93319" stroke="black" stroke-linecap="round" stroke-linejoin="round"/>
<path d="M14.6667 5.83334L10.5322 6.50731" stroke="black" stroke-linecap="round" stroke-linejoin="round"/>
<path d="M14.6667 2.83334L9.5 2.08334" stroke="black" stroke-linecap="round" stroke-linejoin="round"/>
<path d="M5.33331 4.33334C5.33331 4.88564 4.88561 5.33334 4.33331 5.33334C3.78101 5.33334 3.33331 4.88564 3.33331 4.33334C3.33331 3.78104 3.78101 3.33334 4.33331 3.33334C4.88561 3.33334 5.33331 3.78104 5.33331 4.33334Z" stroke="black" stroke-linecap="round" stroke-linejoin="round"/>
</g>
<defs>
<clipPath id="clip0_55_1972">
<rect width="16" height="16" fill="white"/>
</clipPath>
</defs>
</svg>
