<svg width="16" height="16" viewBox="0 0 16 16" fill="none" xmlns="http://www.w3.org/2000/svg">
<g clip-path="url(#clip0_55_1965)">
<path d="M9.33336 3.99999C9.33336 3.64637 9.19288 3.30723 8.94283 3.05718C8.69278 2.80713 8.35365 2.66666 8.00002 2.66666C7.6464 2.66666 7.30726 2.80713 7.05721 3.05718C6.80717 3.30723 6.66669 3.64637 6.66669 3.99999C6.66669 5.11132 7.11336 5.99999 8.00002 6.66666H7.99469M7.99469 6.66666L13.3087 9.61866C13.5167 9.73415 13.6899 9.90317 13.8106 10.1082C13.9312 10.3132 13.9948 10.5468 13.9947 10.7847V11.3333C13.9947 11.6869 13.8542 12.0261 13.6042 12.2761C13.3541 12.5262 13.015 12.6667 12.6614 12.6667H3.32802C2.9744 12.6667 2.63526 12.5262 2.38521 12.2761C2.13517 12.0261 1.99469 11.6869 1.99469 11.3333V10.7847C1.99463 10.5468 2.0582 10.3132 2.17883 10.1082C2.29945 9.90317 2.47273 9.73415 2.68069 9.61866L7.99469 6.66666Z" stroke="black" stroke-linecap="round" stroke-linejoin="round"/>
</g>
<defs>
<clipPath id="clip0_55_1965">
<rect width="16" height="16" fill="white"/>
</clipPath>
</defs>
</svg>
