<svg width="16" height="16" viewBox="0 0 16 16" fill="none" xmlns="http://www.w3.org/2000/svg">
<g clip-path="url(#clip0_42_24262)">
<path d="M2.66667 8H13.3333C13.5101 8 13.6797 8.07024 13.8047 8.19526C13.9298 8.32029 14 8.48986 14 8.66667V10.6667C14 11.3739 13.719 12.0522 13.219 12.5523C12.7189 13.0524 12.0406 13.3333 11.3333 13.3333H4.66667C3.95942 13.3333 3.28115 13.0524 2.78105 12.5523C2.28095 12.0522 2 11.3739 2 10.6667V8.66667C2 8.48986 2.07024 8.32029 2.19526 8.19526C2.32029 8.07024 2.48986 8 2.66667 8Z" stroke="black" stroke-linecap="round" stroke-linejoin="round"/>
<path d="M2.66669 14L3.33335 13" stroke="black" stroke-linecap="round" stroke-linejoin="round"/>
<path d="M13.3334 14L12.6667 13" stroke="black" stroke-linecap="round" stroke-linejoin="round"/>
<path d="M8.00033 2.66667C7.78934 2.81812 7.61838 3.01865 7.50223 3.25095C7.38608 3.48326 7.32822 3.74034 7.33366 4.00001C7.32822 4.25967 7.38608 4.51675 7.50223 4.74906C7.61838 4.98136 7.78934 5.18189 8.00033 5.33334" stroke="black" stroke-linecap="round" stroke-linejoin="round"/>
<path d="M10.667 2.66667C10.456 2.81812 10.2851 3.01865 10.1689 3.25095C10.0528 3.48326 9.99491 3.74034 10.0004 4.00001C9.99491 4.25967 10.0528 4.51675 10.1689 4.74906C10.2851 4.98136 10.456 5.18189 10.667 5.33334" stroke="black" stroke-linecap="round" stroke-linejoin="round"/>
<path d="M5.3337 2.66667C5.12271 2.81812 4.95175 3.01865 4.8356 3.25095C4.71945 3.48326 4.6616 3.74034 4.66704 4.00001C4.6616 4.25967 4.71945 4.51675 4.8356 4.74906C4.95175 4.98136 5.12271 5.18189 5.3337 5.33334" stroke="black" stroke-linecap="round" stroke-linejoin="round"/>
</g>
<defs>
<clipPath id="clip0_42_24262">
<rect width="16" height="16" fill="white"/>
</clipPath>
</defs>
</svg>
