<svg width="16" height="16" viewBox="0 0 16 16" fill="none" xmlns="http://www.w3.org/2000/svg">
<path d="M11.4955 3.13514C11.4955 3.24954 11.4023 3.35902 11.2326 3.45863C10.7129 3.76486 9.47759 3.98036 8.03667 3.98036C6.55729 3.98036 5.29341 3.75302 4.79979 3.43348C4.65629 3.34077 4.57788 3.24017 4.57788 3.13514C4.57788 2.66815 6.1263 2.28992 8.03667 2.28992C9.94705 2.28992 11.4955 2.66815 11.4955 3.13514Z" stroke="black" stroke-width="0.8" stroke-miterlimit="10"/>
<path d="M8.03526 13.0983H8.00024" stroke="black" stroke-width="0.8" stroke-miterlimit="10"/>
<path d="M11.7421 12.1278C11.7421 12.1278 11.8086 12.4118 11.4245 12.5622C11.4038 12.5706 11.3801 12.5795 11.354 12.5889C10.9052 12.7556 9.70447 13.1234 8.00072 13.0973C6.19834 13.1249 4.95911 12.7117 4.57694 12.5622C4.19477 12.4128 4.25937 12.1278 4.25937 12.1278C4.25937 12.1278 4.17553 4.34132 4.25937 4.07405C4.3432 3.80677 4.79835 3.43298 4.79835 3.43298C5.29148 3.75253 6.55487 3.97986 8.03524 3.97986C9.47616 3.97986 10.7114 3.76436 11.2312 3.45813C11.3338 3.5464 11.6701 3.84918 11.7411 4.07503C11.8244 4.3428 11.7421 12.1278 11.7421 12.1278Z" stroke="black" stroke-width="0.8" stroke-miterlimit="10"/>
<path d="M8.00023 13.0988H7.96472" stroke="black" stroke-width="0.8" stroke-miterlimit="10"/>
<path d="M11 13.0199V13.4001C11 13.4001 10.9127 13.5781 10.5228 13.7115C10.1329 13.845 8.96798 14.0145 8 13.9987C7.03246 14.0164 5.86887 13.8472 5.47766 13.7134C5.08645 13.5795 5 13.4019 5 13.4019V13C5.33838 13.1103 6.4356 13.4196 8.03144 13.399C9.53951 13.4185 10.6022 13.1441 11 13.0199Z" stroke="black" stroke-width="0.5" stroke-miterlimit="10"/>
<path d="M8.03479 3.13507H10.0285" stroke="black" stroke-width="0.4" stroke-miterlimit="10" stroke-linecap="round"/>
<path fill-rule="evenodd" clip-rule="evenodd" d="M10.2568 6.48242L10.2509 6.46467L10.239 6.44099L10.2035 6.40746L10.2154 6.3542L10.2213 6.29454L10.2154 6.26495L10.2035 6.22944L10.1917 6.19986L10.174 6.17027L10.1503 6.1466L10.1266 6.12835L10.1325 6.09285L10.1503 5.99817L10.0517 5.96858L9.9984 5.89116L9.97473 5.86157L9.94514 5.8379L9.91506 5.82607L9.87364 5.81423L9.81446 5.8024L9.74888 5.78464L9.73113 5.77231L9.71337 5.75456L9.6897 5.71906L9.64828 5.70722L9.60686 5.7013H9.56494L9.53535 5.71314L9.49393 5.74273L9.45251 5.77823L9.417 5.79056L9.38101 5.8024L9.3455 5.82607L9.31591 5.84382L9.28633 5.86749L9.27449 5.89708L9.25674 5.93258L9.23898 5.96266L9.2089 5.98633L9.1734 6.00408L9.08464 6.03959L8.99538 6.06918L8.98946 6.05142L8.98355 6.02775L8.95988 5.99225L8.9362 5.9745L8.91254 5.95674L8.88887 5.94442L8.8647 5.9385L8.81539 5.93258L8.80947 5.90299L8.80355 5.87341L8.79172 5.8379L8.76805 5.81423L8.74438 5.78464L8.71479 5.77231L8.61617 5.723L8.51803 5.66777L8.42335 5.6086L8.3341 5.54301L8.31043 5.53118L8.28676 5.51983L8.26309 5.51392H8.2335L8.20983 5.51983L8.18024 5.52575L8.13833 5.54942L8.08507 5.59873L8.01997 5.6229L7.83012 5.65248L7.78081 5.67024L7.72755 5.69391L7.67824 5.71758L7.63632 5.74717L7.60673 5.72941L7.57123 5.7235H7.53572L7.50022 5.72941L7.46471 5.74125L7.43463 5.76492L7.40505 5.78908L7.39321 5.8305L7.35179 5.84826L7.31037 5.87193L7.28028 5.90151L7.2507 5.93702L7.2364 5.91434L7.21864 5.89067L7.19497 5.87291L7.1713 5.85516L6.86852 5.84332L6.83894 5.83741L6.81527 5.81966L6.7916 5.8019L6.77384 5.77774L6.7556 5.75999L6.73784 5.75407L6.72009 5.74223L6.70234 5.73632L6.66289 5.72892L6.62147 5.73484L6.56426 5.77034L6.51495 5.81226L6.46564 5.81818L6.43605 5.84776L6.41238 5.86552L6.3823 5.87735L6.35863 5.88919H6.32904L6.13919 5.90102L6.08001 5.90694L6.02182 5.91877L5.96857 5.94244L5.91531 5.96661L5.85564 5.99619L5.79647 6.01395H5.72595L5.68403 6.01986L5.65444 6.03762L5.61894 6.05537L5.56963 6.10863L5.55779 6.13871L5.54004 6.1683V6.22747L5.54596 6.24522L5.55187 6.26298L5.56371 6.28073L5.58738 6.31081L5.61105 6.32856L5.64064 6.33448H5.74765L5.8009 6.32264L5.88424 6.35223L5.96709 6.3759L6.13919 6.40549L6.21612 6.42324L6.23436 6.44099L6.2462 6.45875L6.26395 6.49475L6.2462 6.53617L6.24028 6.57167V6.60718L6.2462 6.6486L6.25803 6.67868L6.29354 6.7201L6.31129 6.73786L6.33496 6.74969L6.38427 6.7852L6.40203 6.83451L6.41435 6.88826L6.41633 6.90059V6.91834L6.404 6.95385L6.39808 6.98935L6.39216 7.03127L6.41041 7.1437L6.38033 7.2152L6.35666 7.28621L6.27973 7.63633L6.27381 7.68565V7.73496L6.27973 7.77638L6.29156 7.81781L6.30932 7.85923L6.33299 7.88882L6.404 8.00766L6.42224 8.04908L6.43408 8.091L6.48734 8.27493L6.54059 8.45295L6.54651 8.49438L6.54059 8.5358V8.57722L6.54651 8.66056L6.55243 8.70198L6.53024 8.77447L6.5184 8.81639V8.85781L6.52432 8.8874L6.53024 8.91699L6.54799 8.94657L6.56426 8.97172L6.5761 8.98356L6.58251 8.99539L6.58843 9.01315V9.0309L6.60026 9.18525L6.61801 9.27993V9.34551L6.60618 9.40469L6.60026 9.43428L6.58251 9.45795L6.57018 9.48753L6.55243 9.5117L6.51495 9.56348L6.4972 9.59898L6.48536 9.62857L6.47353 9.65816L6.46761 9.68824L6.46169 9.72374L6.45578 9.75333V9.78883L6.46169 9.83026L6.47353 9.8485L6.48536 9.87217L6.50312 9.88993L6.52087 9.90176L6.57413 9.95107L6.55637 10.0004L6.55046 10.0364V10.0719L6.55637 10.1074L6.56229 10.1429L6.58645 10.1843L6.61012 10.2262L6.60421 10.2558L6.59237 10.2795L6.58645 10.3032V10.3865L6.59237 10.4102L6.59829 10.4398L6.63379 10.5226L6.6693 10.6119L6.69297 10.6888L6.71072 10.7662L6.72256 10.8491L6.72848 10.9324L6.74031 11.0389L6.75806 11.14L6.78223 11.2465L6.8059 11.3417L6.82957 11.391L6.84732 11.4324L6.87691 11.4684L6.88874 11.5039V11.6228L6.93016 11.747L7.17969 11.9443L7.229 11.9206L7.1713 11.6346L7.22062 11.5394L7.2147 11.5039L7.20286 11.4625L7.19695 11.4329L7.16144 11.391L7.13777 11.3417V11.3003L7.12594 11.2169L7.11361 11.1814L7.10769 11.1518V11.1163L7.11361 11.0389L7.12002 10.962L7.12594 10.8846L7.12002 10.8076L7.11361 10.7065L7.12002 10.6119L7.12594 10.5108L7.14369 10.4161L7.14961 10.3668L7.16144 10.3175V10.175L7.14961 10.1217L7.14369 10.0803L7.12594 10.031L7.11361 9.97129L7.10177 9.9062V9.84702L7.11361 9.78735L7.14369 9.68873L7.22062 9.4037L7.2502 9.31494L7.27387 9.21977L7.27979 9.19018V9.15467L7.27387 9.11867L7.26204 9.08909L7.2502 9.05358L7.2147 8.99441L7.19103 8.97074L7.2147 8.92882L7.22653 8.87951L7.23245 8.84992V8.81442L7.22653 8.78483L7.20878 8.75475L7.20286 8.72516L7.19695 8.69557V8.66598L7.20286 8.6364L7.25218 8.53531L7.30593 8.43668L7.31776 8.4066L7.3296 8.37109V8.29417L7.31776 8.2705L7.31184 8.24683L7.29409 8.22266L7.28176 8.19899L7.20533 8.10875L7.19941 8.091L7.19349 8.06683L7.18166 8.01752L7.16982 7.96821L7.14024 7.8972L7.1067 7.82964L7.10079 7.81781L7.09487 7.7823V7.77047L7.10079 7.72115V7.67924L7.08895 7.58456L7.0712 7.50122L7.06528 7.47755V7.42429L7.0712 7.40654L7.08895 7.35723L7.11903 7.3158L7.14862 7.26254L7.17229 7.20337L7.19004 7.14962L7.20188 7.08453L7.20779 7.03127L7.16637 6.98935L7.1427 6.9716L7.11262 6.95385L7.1067 6.90059V6.7852L7.11262 6.72602L7.15454 6.69643L7.20385 6.66685L7.24527 6.64268L7.2867 6.60718L7.30494 6.58943L7.31678 6.55984L7.32269 6.53025L7.32861 6.50658V6.45678L7.32269 6.41535L7.31678 6.37985L7.37003 6.34434L7.36412 6.27876L7.3582 6.24917L7.35228 6.21958L7.41146 6.23142L7.43513 6.24917L7.4588 6.261L7.48296 6.27284L7.51255 6.28467H7.57172L7.60131 6.27876L7.62498 6.27284L7.68465 6.30884L7.7024 6.32659L7.72015 6.35026V6.39957L7.73199 6.44099L7.74087 6.50609L7.7527 6.56526L7.74678 6.58893L7.73495 6.60669L7.71719 6.62444L7.69944 6.64811L7.68761 6.67227L7.68169 6.70186L7.67577 6.73736L7.68169 6.77287L7.69353 6.80837L7.71128 6.83846L7.74087 6.88777L7.78229 6.92327L7.81779 6.95878V7.01845L7.80596 7.07762L7.80004 7.13088L7.79412 7.18414L7.78821 7.23789L7.79412 7.29115V7.32665L7.80596 7.36216L7.81779 7.39815L7.83012 7.42774L7.80596 7.53426L7.79412 7.58357L7.78821 7.63288L7.79412 7.66839L7.80596 7.69798L7.81779 7.72806L7.84196 7.75173L7.86563 7.78723L7.87746 7.82865L7.8893 7.86416V7.90608L7.88338 7.95933L7.87746 8.01259L7.87154 8.0619L7.85971 8.11565L7.85379 8.16891L7.84639 8.21527V8.27493L7.85231 8.32819L7.86415 8.38145L7.87598 8.4352L7.89571 8.48846L7.91346 8.54172L7.94896 8.62505L7.95488 8.66648L7.96672 8.7079V8.7434L7.95488 8.77891L7.90557 8.89775L7.89571 8.95742L7.8893 9.02104L7.88338 9.07035L7.87746 9.11966L7.86563 9.16897L7.85379 9.2104L7.79412 9.36475L7.75862 9.43576L7.72311 9.50726L7.70536 9.53093L7.69944 9.5546L7.69353 9.58419L7.68761 9.60786V9.63744L7.69353 9.66753L7.69944 9.6912L7.70536 9.71487L7.74087 9.77996L7.78229 9.84554L7.80004 9.86921L7.80596 9.8988V9.96981L7.79412 10.0354L7.78821 10.0887V10.2016L7.79412 10.2548L7.80596 10.3042L7.83012 10.3535L7.84196 10.3954L7.85379 10.4447L7.85971 10.4861L7.85379 10.5354L7.84196 10.6424L7.83012 10.7554L7.83604 10.8264L7.84196 10.9033L7.85971 10.9748L7.87746 11.0517L7.84787 11.0936L7.81779 11.1469V11.1706L7.81188 11.1883V11.2376L7.81779 11.2796L7.83012 11.2973L7.84196 11.321L7.87154 11.3565L7.89521 11.392L7.91888 11.4334L7.94255 11.4753L7.95439 11.5168L7.97214 11.5661L7.98398 11.6075V11.6568L7.99581 11.6982V11.7396L7.97806 11.8171L7.96622 11.894L7.96031 11.9433L7.94255 11.9852L7.93072 12.0266L7.91888 12.076L7.91297 12.1174L7.91888 12.1667L7.93072 12.2081L7.95439 12.2495L8.01997 12.3324L8.10874 12.2732L8.15016 12.2436L8.18024 12.2022L8.269 12.0543L8.29267 12.0188L8.31634 11.9768L8.34001 11.894L8.35234 11.8447V11.6667L8.37601 11.6312L8.39377 11.5952L8.39968 11.5715V11.5182L8.39377 11.4946L8.38193 11.4591L8.39968 11.4231L8.4056 11.3876L8.41744 11.3165L8.42335 11.251L8.43519 11.1859L8.44702 11.1504L8.45886 11.1149L8.46478 11.0848V11.0552L8.45886 11.0019L8.45294 10.9723L8.44111 10.9487L8.42927 10.925L8.41744 10.9008L8.39968 10.8712L8.38193 10.8417L8.3701 10.8121L8.36418 10.7825L8.35826 10.7529L8.35234 10.7228V10.6577L8.3701 10.5749L8.37601 10.4856V10.4028L8.3701 10.3135L8.4056 10.2543L8.42335 10.2188L8.42927 10.1355V10.0527L8.41744 9.97524L8.39968 9.89831L8.39377 9.85639L8.38785 9.82089V9.76073L8.39377 9.72522L8.39968 9.67196V9.61821L8.39377 9.56348L8.38193 9.51022L8.37601 9.48605V9.46238L8.38193 9.41307L8.39377 9.37165L8.4056 9.32234L8.42927 9.28042L8.47858 9.18574L8.52001 9.09648L8.53233 9.02547L8.54417 8.95446L8.60334 8.87113L8.66252 8.78828L8.68027 8.76412L8.69802 8.72861L8.71035 8.69902L8.71627 8.66352V8.56243L8.71035 8.52692L8.66104 8.37898L8.60778 8.23647L8.57819 8.15363V8.07029L8.58411 8.02097L8.59003 7.97955L8.60187 7.92629L8.6137 7.86663L8.61962 7.81337L8.62554 7.75419L8.66696 7.71228L8.69063 7.67677L8.70887 7.64718L8.72071 7.60576V7.57026L8.70838 7.49234L8.69013 7.4095L8.66646 7.32616L8.64279 7.24331L8.63688 7.21372L8.64279 7.18364L8.66055 7.12447L8.67238 7.06529L8.6783 7.03571V7.00563L8.67238 6.97604L8.66646 6.9499L8.64279 6.89073L8.62504 6.86706L8.60137 6.85128L8.61912 6.8212L8.62504 6.78569L8.63096 6.7561L8.62504 6.7206L8.61321 6.68509L8.59545 6.64909L8.61321 6.57808L8.62504 6.55441L8.64279 6.52483L8.67238 6.49524L8.70197 6.45924L8.75572 6.47699H8.88196L8.93127 6.51299L8.98453 6.53666L9.03779 6.5485L9.09746 6.55441H9.27646L9.30013 6.56625L9.3238 6.57217L9.34156 6.58992L9.36523 6.62542L9.37114 6.64318V6.76202L9.36523 6.81133L9.35931 6.86065L9.35339 6.88432V6.9139L9.35931 6.93757V6.96124L9.37114 7.01056L9.35931 7.04064L9.35339 7.07614L9.34156 7.11165V7.17082L9.34747 7.2009L9.35931 7.22457L9.36523 7.24824L9.30013 7.31925L9.25871 7.37301L9.24688 7.39076V7.40259L9.24096 7.42035L9.23504 7.44402V7.46177L9.24096 7.47952L9.24688 7.49727L9.25279 7.51503L9.27646 7.55102L9.30605 7.58653V7.66937L9.30013 7.69896L9.2883 7.74827L9.28238 7.79759L9.27646 7.85084V7.90016L9.28238 7.96574L9.30013 8.03084L9.32578 8.08409L9.36128 8.14327L9.4027 8.2202L9.44462 8.30354L9.45054 8.31537L9.44462 8.33312L9.40911 8.45788L9.39679 8.49339L9.39087 8.53481V8.57032L9.39679 8.64774L9.4027 8.68916L9.41503 8.72467L9.43278 8.76017L9.45054 8.81392L9.47371 8.8731L9.49738 8.98011L9.5033 9.06295V9.14629L9.49147 9.22914L9.47963 9.30606L9.4678 9.42491L9.47371 9.48408V9.54375L9.47963 9.58517V9.6621L9.47371 9.70352L9.45596 9.75284L9.43229 9.79426L9.41454 9.84357L9.39629 9.89683L9.39038 9.95009V10.0334L9.42637 10.1222L9.43229 10.1459V10.1873L9.4244 10.2045L9.3884 10.2815L9.34698 10.3584L9.33515 10.3826L9.32923 10.4062L9.32331 10.4299L9.31739 10.4536V10.4832L9.32331 10.5068L9.32923 10.5364L9.33515 10.5606L9.35882 10.6257L9.3884 10.6848L9.40024 10.7204V10.7623L9.37657 10.9225V10.958L9.37065 10.9876L9.36473 11.0172V11.0527L9.37065 11.0828L9.37657 11.1124L9.3884 11.1775L9.40024 11.2426L9.40665 11.3082L9.41257 11.3673L9.41848 11.5927L9.47174 11.6109L9.60834 11.4329L9.63793 11.4088L9.6616 11.3851L9.67935 11.3437L9.75628 11.2667L9.6971 11.1893L9.69118 11.1656L9.68527 11.1479L9.71485 11.0705L9.75628 10.9935L9.79227 10.9166L9.84159 10.851L9.87117 10.7623L9.89484 10.7268L9.91851 10.6848L9.93627 10.6434L9.94859 10.5941L9.95451 10.5645L9.94268 10.5404L9.90076 10.3983L9.89484 10.3387L9.90076 10.2736L9.9126 10.2085L9.93035 10.1547L9.94268 10.1251L9.94859 10.1015L9.95451 10.0601V10.0107L9.94859 9.96932L9.93035 9.9279L9.88104 9.80905L9.89287 9.78538L9.91062 9.75579L9.95254 9.6907L9.98213 9.62512L9.99396 9.57186L9.99988 9.52255L9.99396 9.4688L9.97621 9.41554L9.91753 9.2676L9.91161 9.23801V9.21434L9.94761 9.16108L9.9772 9.11917L9.99495 9.07774L10.0186 9.03632L10.0364 8.9949L10.0541 8.93523L10.06 8.87606L10.0719 8.81688L10.0778 8.76313V8.6507L10.066 8.59103L10.0482 8.53777L10.0305 8.48451L10.0068 8.4352L9.91753 8.2986L9.90569 8.28085L9.89978 8.2631V8.2271L9.92345 8.13242L9.94169 8.06683L9.97128 7.92481L9.9772 7.85923L9.97128 7.82964L9.95944 7.80005L9.94761 7.77638L9.92345 7.75271L9.89386 7.72313L9.89978 7.65162L9.90569 7.58061V7.50911L9.89386 7.4381L9.89978 7.41443L9.90569 7.39076L9.91753 7.37301L9.92345 7.34884L9.94761 7.31925L9.95944 7.28375L9.9772 7.24824L9.98903 7.21274L10.0245 7.08206L10.06 6.95138L10.1197 6.88629L10.1315 6.86854L10.1434 6.84487L10.1552 6.82662L10.173 6.77731V6.70827L10.2499 6.58943L10.2617 6.55984V6.50609L10.2568 6.48242ZM7.23048 6.3044L7.21864 6.32264L7.21273 6.34631L7.20681 6.36407V6.40746L7.21273 6.44297V6.52039L7.20089 6.53814L7.17722 6.55589L7.14763 6.57365L7.05246 6.63282L7.02879 6.65057L7.01695 6.66882L6.9992 6.71813L6.99328 6.78914V6.93166L6.9992 7.00267L7.01104 7.04458L7.06429 7.06233L7.08796 7.08009L7.08205 7.1294L7.07021 7.17871L7.04654 7.22063L7.02287 7.26994L6.99328 7.3232L6.9637 7.37695L6.95778 7.41837L6.95186 7.4598V7.4953L6.9637 7.53672L6.97553 7.62006L6.98737 7.69699V7.75666L6.98145 7.79216L6.98737 7.82767L6.99328 7.86317L7.00512 7.89276L7.04062 7.95835L7.06429 8.02344L7.07613 8.05303L7.08205 8.08903L7.08796 8.1127L7.09388 8.13637L7.10572 8.16004L7.12396 8.18371L7.18906 8.27888L7.20089 8.30255L7.21273 8.33805L7.21864 8.34989V8.36764L7.21273 8.38539L7.20681 8.39723L7.17722 8.44654L7.14763 8.4998L7.12396 8.55306L7.0998 8.61223L7.08796 8.6364L7.08205 8.66598V8.71924L7.08796 8.77842L7.0998 8.80258L7.11163 8.82625L7.11805 8.84992V8.87359L7.11163 8.90318L7.09388 8.93277L7.07021 8.98208L7.06429 8.99983L7.07021 9.0235L7.07613 9.03534L7.08796 9.05309L7.11163 9.06492L7.12988 9.08268L7.14172 9.10043L7.15355 9.1241L7.16539 9.17341V9.19708L7.15947 9.22075L7.14172 9.3036L7.11163 9.38694L7.04062 9.66555L6.9992 9.77848L6.99328 9.81398L6.98737 9.8559V9.93283L6.99328 9.97425L6.9992 10.0157L7.01104 10.0517L7.02287 10.0872L7.03471 10.1286L7.04062 10.1641L7.04654 10.2055L7.05246 10.2474V10.2889L7.04654 10.3244L7.02879 10.4077L7.01695 10.5063L7.00512 10.6193V10.7179L7.01104 10.8249V10.9728L7.00512 11.0438L6.99328 11.1153V11.1686L7.00512 11.2278L7.01104 11.2514L7.01695 11.2815L7.02287 11.3111V11.3407L7.04062 11.4176L7.05838 11.4418L7.06429 11.4655L7.09388 11.4951L7.10572 11.5306L7.07613 11.5897L7.05838 11.6317L7.06429 11.6849L7.07021 11.7204L7.0209 11.6849L6.99723 11.6075V11.5582L7.00315 11.5049L6.99131 11.4635L6.96764 11.4097L6.94397 11.3742L6.91389 11.3151L6.8843 11.2199L6.86063 11.1213L6.8488 11.0261L6.83696 10.9314L6.83105 10.8422L6.81329 10.7475L6.79751 10.6484L6.76793 10.5596L6.73193 10.4822L6.70234 10.4018L6.6905 10.3658V10.3303L6.70234 10.2948L6.72009 10.2593L6.72601 10.2415V10.2179L6.72009 10.1937L6.70234 10.1641L6.68459 10.1286L6.66683 10.099L6.66092 10.0813L6.655 10.0635V10.0458L6.66092 10.0339L6.67867 9.96241L6.68459 9.93875L6.67867 9.90916L6.66683 9.88549L6.64316 9.86773L6.58991 9.81842L6.57166 9.80067L6.56574 9.777L6.57166 9.72374L6.58399 9.67048L6.60766 9.62117L6.63725 9.57975L6.66683 9.54424L6.68459 9.50874L6.70234 9.46682L6.72009 9.4254L6.72601 9.38989L6.73193 9.34058V9.29867L6.72601 9.25724L6.7122 9.16897L6.70037 9.02104L6.69445 8.98553L6.68261 8.94953L6.66486 8.91403L6.64119 8.89036L6.63527 8.8726L6.62344 8.84893L6.62936 8.83118L6.63527 8.80751L6.65894 8.73009L6.66486 8.71826V8.65908L6.65303 8.62949V8.48155L6.64711 8.42189L6.59385 8.23795L6.5401 8.05401L6.52235 8.00076L6.5046 7.9475L6.46564 7.8829L6.42422 7.82372L6.41238 7.80005L6.40005 7.77638L6.38822 7.7468L6.3823 7.72313L6.38822 7.65162L6.46564 7.31334L6.48931 7.25416L6.51495 7.19647L6.52679 7.16047V7.11904L6.50903 7.04212V6.9928L6.51495 6.97505L6.52679 6.95138V6.92771L6.5327 6.89812L6.52087 6.84487L6.50312 6.79555L6.49128 6.74624L6.48536 6.73441L6.47945 6.71665L6.45578 6.69298L6.38772 6.65403L6.36997 6.64219L6.35222 6.62444V6.6126L6.3463 6.60077V6.58893L6.35222 6.57118L6.36997 6.51792L6.37589 6.49425L6.36997 6.46417L6.35222 6.41486L6.33447 6.38527L6.3108 6.35568L6.28121 6.33201L6.25162 6.32018L6.15645 6.29602L6.0736 6.28418L5.99618 6.26643L5.91334 6.24276L5.83592 6.21909L5.81816 6.21317H5.76491L5.72348 6.21909L5.68748 6.22501H5.6579L5.65198 6.21317L5.64606 6.19542L5.66381 6.16583L5.68748 6.14216L5.70573 6.13032L5.71756 6.12391L5.73532 6.118H5.81816L5.89558 6.09433L5.93109 6.07657L5.96659 6.05882L6.00802 6.04107L6.04944 6.02332L6.09875 6.01148L6.14806 6.00556L6.33792 5.99965L6.38723 5.99373L6.43654 5.98189L6.47797 5.95822L6.51347 5.92814H6.53714L6.56081 5.92223L6.58448 5.90447L6.60865 5.8808L6.63823 5.85713L6.66782 5.83938H6.67966L6.69741 5.8453L6.727 5.8808L6.81033 5.93998L6.85965 5.95231L7.13284 5.95822L7.15059 5.97006L7.16243 5.98189L7.18018 6.0174L7.20385 6.08841L7.2216 6.14216L7.22752 6.14808V6.1609L7.2216 6.16682L7.21568 6.17273L7.20977 6.19049V6.20232L7.24231 6.25952L7.25415 6.29503L7.23048 6.3044ZM8.6783 6.22747L8.66646 6.24522L8.66055 6.25706L8.65463 6.28073L8.64871 6.29848V6.32264L8.64279 6.35223L8.63096 6.3759L8.61321 6.39365L8.55995 6.45283L8.54811 6.47058L8.53036 6.49475L8.51803 6.5125L8.49436 6.57167L8.47661 6.60126L8.47069 6.61901L8.47661 6.64268L8.48845 6.67276L8.50028 6.70827L8.51212 6.72602L8.51803 6.74969V6.76745L8.51212 6.7852L8.48253 6.83895L8.47661 6.8567L8.47069 6.86854V6.89221L8.47661 6.90404L8.48845 6.90996L8.51803 6.93363L8.5422 6.9573L8.55403 6.98097L8.56587 7.01056L8.55995 7.04655L8.54811 7.09784L8.53677 7.15307L8.53085 7.18266L8.52444 7.21274L8.53085 7.24824L8.53677 7.27783L8.56044 7.35476L8.57819 7.42626L8.59595 7.50911L8.60778 7.58653V7.6102L8.60187 7.62795L8.59003 7.63979L8.54861 7.67529L8.51853 7.70488L8.51261 7.71671V7.78822L8.50669 7.84739L8.49486 7.90114L8.48302 7.9544L8.47119 8.01358L8.46527 8.06683V8.12059L8.47119 8.17976L8.48894 8.22907L8.50669 8.28282L8.556 8.41893L8.60532 8.56144V8.58511L8.61123 8.60927V8.63294L8.60532 8.6507V8.67437L8.58756 8.71579L8.57573 8.73354L8.52198 8.80505L8.45886 8.8731L8.44702 8.89085L8.43519 8.91452L8.42927 8.93227V8.95644L8.41744 9.00969L8.41152 9.06295L8.37601 9.14629L8.3341 9.22914L8.30451 9.28239L8.28676 9.34206L8.269 9.39532L8.26309 9.45449L8.269 9.49641L8.27492 9.53783L8.28084 9.57926L8.28676 9.62068V9.6621L8.28084 9.70352V9.80215L8.28676 9.85146L8.29267 9.90077L8.31043 9.96587L8.31634 10.0374L8.32226 10.1025L8.31634 10.1676L8.28084 10.2213L8.25125 10.2805L8.269 10.3633V10.4467L8.26309 10.5295L8.24533 10.6128L8.23942 10.6622V10.7036L8.24533 10.7455L8.28084 10.8698L8.29859 10.9058L8.32226 10.9413L8.34001 10.9709L8.35234 11.0004V11.036L8.34593 11.0715L8.34001 11.1015L8.32818 11.1311L8.32226 11.1666L8.31043 11.2159L8.30451 11.2514V11.2894L8.29859 11.3486L8.29267 11.3782L8.27492 11.4078L8.269 11.4255V11.4438L8.28676 11.5029V11.5384L8.28084 11.5503L8.27492 11.5621L8.25717 11.568L8.2409 11.6277V11.8057L8.23498 11.8412L8.22314 11.8767L8.21131 11.9122L8.19356 11.9418L8.1758 11.9719L8.09838 12.1139L8.07471 12.1381L8.04512 12.1618L8.03921 12.144L8.02737 12.1198V12.0666L8.03329 12.037L8.04512 12.0192L8.05696 11.9837L8.06879 11.9537L8.08063 11.8886L8.09246 11.8116L8.1043 11.7401V11.681L8.09838 11.6218L8.09246 11.5725L8.08063 11.5192L8.06879 11.466L8.04512 11.4166L7.99581 11.322L7.96031 11.2805L7.93072 11.2386L7.9248 11.2209L7.91888 11.209V11.1913L7.9248 11.1735L7.94502 11.1415L7.96869 11.106L7.98644 11.0823L7.99828 11.0522V11.0226L7.97461 10.9575L7.95685 10.886L7.95094 10.815L7.94502 10.7494L7.95685 10.6424L7.96869 10.5438L7.97461 10.5083V10.4787L7.96869 10.4491V10.4136L7.96277 10.384L7.9391 10.3244L7.91543 10.2652L7.9036 10.2356V10.099L7.90951 10.0576L7.91543 10.0083L7.92135 9.92543V9.88401L7.91543 9.8485L7.9036 9.82434L7.89176 9.80067L7.87401 9.77108L7.8385 9.72177L7.81434 9.66851L7.80251 9.63843V9.61476L7.80842 9.58517L7.86217 9.48408L7.89768 9.40715L7.93318 9.32431L7.95685 9.24097L7.97461 9.18771L7.98644 9.13445L7.99828 9.0807L8.00469 9.02745L8.01061 8.97419L8.01652 8.92488L8.05203 8.8302L8.06978 8.79469L8.0757 8.75869L8.08162 8.72319V8.68768L8.06978 8.63442L8.05795 8.58511L8.04019 8.5358L8.01652 8.48649L7.99828 8.44506L7.98644 8.39575L7.97461 8.35433L7.96869 8.30502L7.96277 8.2557V8.16645L7.96869 8.11713L7.98644 8.05747L7.99236 8.00421L8.00469 7.89177V7.86169L7.99828 7.83211L7.99236 7.7966L7.98644 7.76701L7.97461 7.74334L7.96277 7.70784L7.92727 7.65853L7.91543 7.64669L7.90951 7.63486L7.9036 7.62302V7.57371L7.90951 7.54412L7.9391 7.44303L7.94502 7.41936V7.39569L7.9391 7.37202L7.93318 7.34835L7.91543 7.30643L7.9036 7.25712V7.16786L7.90951 7.11855L7.92135 7.07713L7.93318 7.0002V6.93955L7.92727 6.92771L7.91543 6.89812L7.82667 6.80887L7.80251 6.77928L7.79659 6.76745L7.79067 6.74969V6.72602L7.80251 6.70235L7.81434 6.6846L7.8385 6.65452L7.85034 6.62493L7.86217 6.59534V6.55984L7.85626 6.48883L7.8385 6.41732L7.83259 6.3759V6.33448L7.82667 6.31673L7.82026 6.29848L7.78229 6.25952L7.74678 6.22994L7.63977 6.14709L7.59046 6.17076L7.57271 6.17668H7.5234L7.50564 6.17076L7.48197 6.14709L7.47014 6.13526L7.41639 6.11701L7.40455 6.12293H7.37497L7.33946 6.08742V6.05784L7.32171 6.02233L7.34538 5.99274L7.37497 5.96907L7.40455 5.95083L7.44006 5.93899L7.46422 5.92124L7.47606 5.90349L7.49381 5.87982L7.49973 5.85615L7.51156 5.84431L7.52931 5.83839H7.5589L7.58849 5.85615L7.62399 5.86798H7.65407L7.68958 5.85615L7.72509 5.82656L7.76059 5.80289L7.8099 5.77873L7.85182 5.76689L8.04907 5.73139L8.14227 5.69341L8.20194 5.6441L8.22561 5.63227L8.2552 5.62635L8.35037 5.69736L8.449 5.75653L8.556 5.8162L8.66252 5.86946L8.68027 5.8813L8.69211 5.89905L8.69802 5.92864V5.9528L8.70444 6.00211L8.71035 6.01986L8.72219 6.0317L8.74586 6.03762L8.76953 6.04353L8.84054 6.04945L8.85829 6.06129L8.87654 6.07904L8.87013 6.09679L8.86421 6.12046L8.82279 6.13871L8.77347 6.14463L8.72022 6.18013L8.6783 6.22747ZM10.0847 6.63085L10.0729 6.65452L10.0669 6.67868L10.061 6.70827V6.75758L10.0551 6.78125L10.0492 6.79901L10.0374 6.81084L9.97818 6.87643L9.96684 6.90059L9.95501 6.92426L9.91901 7.05494L9.8835 7.18512L9.86575 7.23887L9.81644 7.3158L9.8046 7.34539L9.79277 7.37547L9.78093 7.41098V7.43465L9.78685 7.45832L9.79277 7.52341V7.58899L9.78685 7.65409L9.78093 7.71918V7.77293L9.79277 7.79068L9.81052 7.80844L9.84603 7.83802L9.85786 7.84986L9.86378 7.86169L9.84603 7.98054L9.83419 8.04563L9.79868 8.15264L9.78685 8.2059V8.24732L9.79277 8.28924L9.8046 8.32474L9.82235 8.36025L9.91112 8.49092L9.92887 8.53235L9.94712 8.58166L9.95895 8.62358L9.96487 8.67289L9.97079 8.7222V8.77151L9.95895 8.82083L9.95303 8.86225L9.94712 8.91551L9.92887 8.96926L9.91703 9.00476L9.89336 9.04027L9.87561 9.07577L9.83419 9.14087L9.81052 9.17095L9.8046 9.20645L9.79868 9.24787L9.8046 9.28338L9.81052 9.31888L9.87561 9.47323L9.88153 9.50331L9.88745 9.53882V9.56841L9.88153 9.59799L9.82235 9.705L9.79277 9.74643L9.77501 9.78785L9.7691 9.81152V9.82927L9.77501 9.84702L9.78093 9.86527L9.83024 9.98954L9.83616 10.0132L9.84208 10.0433V10.0729L9.83616 10.1084L9.81841 10.1439L9.81249 10.1853L9.78882 10.2686V10.3934L9.79474 10.4348L9.84405 10.5828L9.83222 10.6242L9.81446 10.6597L9.79671 10.6893L9.77304 10.7248L9.74888 10.8081L9.69957 10.8791L9.65025 10.9625L9.61475 11.0453L9.57875 11.1287V11.1908L9.59108 11.2204L9.60883 11.2564L9.58516 11.286L9.56691 11.3215L9.54325 11.3392L9.51957 11.3688V11.2978L9.50774 11.2263L9.50182 11.1612L9.48407 11.0902L9.47815 11.072V11.0069L9.48407 10.9654V10.924L9.50774 10.8052L9.51366 10.7815V10.7282L9.50774 10.6982L9.50182 10.6686L9.48999 10.639L9.4604 10.5798L9.43673 10.5201L9.43081 10.4965V10.4373L9.48407 10.3303L9.52549 10.2534L9.53141 10.2297L9.53733 10.206L9.54325 10.1878V10.1641L9.53733 10.1148L9.50774 10.0319L9.50182 9.99003V9.9131L9.51366 9.88352L9.53141 9.84801L9.55508 9.78834L9.57875 9.73508L9.58516 9.68183L9.59108 9.62807V9.57876L9.58516 9.52945L9.57875 9.4757V9.37707L9.58516 9.32776L9.60291 9.2385L9.60883 9.14382L9.61475 9.05457L9.60291 8.96581L9.59108 8.90022L9.57875 8.83513L9.55508 8.77546L9.53141 8.71037L9.51957 8.6867L9.50774 8.65711L9.50182 8.63344V8.51805L9.51366 8.48846L9.55508 8.3637V8.28135L9.54325 8.25767L9.50182 8.17434L9.44856 8.08557L9.42489 8.03626L9.40714 7.98695L9.3889 7.93369L9.38298 7.87994L9.3889 7.84443V7.80301L9.39481 7.76159L9.40714 7.72017L9.41898 7.67825L9.4244 7.64028V7.59886L9.41848 7.55743V7.5456L9.40665 7.52735L9.37509 7.49234L9.36325 7.47459L9.35142 7.46275V7.44303L9.35734 7.42528L9.38692 7.38977L9.47371 7.29509L9.48555 7.27142L9.49738 7.24775V7.23592L9.49147 7.21816L9.48555 7.20633L9.4678 7.18216L9.45596 7.15849V7.11707L9.46188 7.08748L9.4678 7.06381L9.47963 7.04014L9.48555 7.01647V6.99231L9.4678 6.92722V6.87791L9.47371 6.82662L9.47963 6.77336L9.48555 6.71419V6.66093L9.47963 6.61901L9.4678 6.57759L9.45004 6.54209L9.42046 6.50658L9.38446 6.48242L9.34303 6.45875L9.30161 6.44691H9.2523L9.09203 6.44099H9.05012L9.01461 6.42916L8.97911 6.41141L8.9436 6.38774L8.93177 6.38182L8.91993 6.3759L8.88196 6.36407H8.76756L8.75572 6.35815L8.74389 6.35223L8.7498 6.31673L8.76164 6.29256L8.77347 6.27481L8.79714 6.25706L8.8149 6.23931L8.83265 6.22747L8.85632 6.21564L8.8864 6.2038L8.91007 6.19788L8.99292 6.18605L9.07034 6.16238L9.14135 6.13279L9.21827 6.10271L9.24835 6.09087L9.27203 6.07312L9.32134 6.03762L9.33909 6.01395L9.35684 5.98436L9.36868 5.96069L9.38051 5.93061L9.42243 5.90694L9.47174 5.88919L9.50725 5.87735L9.54867 5.84776L9.60834 5.81226L9.62609 5.83593L9.65568 5.8596L9.68527 5.87735L9.72077 5.88919L9.78636 5.90694L9.85737 5.91877L9.87512 5.92469L9.88695 5.93061L9.89879 5.94244L9.91062 5.95477L9.94662 6.00803L9.96438 6.03762L9.98213 6.04945L9.99396 6.06129L10.0117 6.0672L10.0295 6.07312L10.0236 6.09679L10.0117 6.12046L9.99988 6.15054V6.1683L10.0058 6.18605L10.0295 6.2038L10.0591 6.21564L10.0768 6.22747L10.0946 6.23931L10.1005 6.25114L10.1064 6.26889L10.1123 6.28073V6.29256L10.1064 6.34188L10.0946 6.39119V6.42078L10.0886 6.44445L10.1005 6.4622L10.1365 6.4982L10.1542 6.52187L10.0847 6.63085Z" fill="black" stroke="black" stroke-width="0.3" stroke-miterlimit="10"/>
</svg>
