<svg width="16" height="16" viewBox="0 0 16 16" fill="none" xmlns="http://www.w3.org/2000/svg">
<g clip-path="url(#clip0_62_35646)">
<path d="M2.71655 13.8438H13.4911C14.4353 13.8438 15.0648 13.2076 15.0648 12.2701V3.85937C15.0648 2.92187 14.4353 2.28571 13.4911 2.28571H2.71655C1.77235 2.28571 1.14288 2.92187 1.14288 3.85937V12.2701C1.14288 13.2076 1.77235 13.8438 2.71655 13.8438ZM2.72993 12.7656C2.4219 12.7656 2.22101 12.5446 2.22101 12.2165V3.91294C2.22101 3.58481 2.4219 3.36383 2.72993 3.36383H13.4844C13.7857 3.36383 13.9867 3.58481 13.9867 3.91294V12.2165C13.9867 12.5446 13.7857 12.7656 13.4844 12.7656H2.72993ZM4.08931 4.98437C4.41074 4.98437 4.6719 4.7232 4.6719 4.39508C4.6719 4.07365 4.41074 3.81249 4.08931 3.81249C3.76119 3.81249 3.50003 4.07365 3.50003 4.39508C3.50003 4.7232 3.76119 4.98437 4.08931 4.98437ZM5.81029 4.98437C6.13842 4.98437 6.39958 4.7232 6.39958 4.39508C6.39958 4.07365 6.13842 3.81249 5.81029 3.81249C5.48887 3.81249 5.22771 4.07365 5.22771 4.39508C5.22771 4.7232 5.48887 4.98437 5.81029 4.98437ZM7.53797 4.98437C7.8594 4.98437 8.12054 4.7232 8.12054 4.39508C8.12054 4.07365 7.8594 3.81249 7.53797 3.81249C7.20985 3.81249 6.94871 4.07365 6.94871 4.39508C6.94871 4.7232 7.20985 4.98437 7.53797 4.98437ZM10.6786 4.7366H12.4867C12.6875 4.7366 12.8215 4.59597 12.8215 4.39508C12.8215 4.19419 12.6875 4.06026 12.4867 4.06026H10.6786C10.4777 4.06026 10.3371 4.19419 10.3371 4.39508C10.3371 4.59597 10.4777 4.7366 10.6786 4.7366ZM1.79244 6.29017H14.4286V5.41294H1.79244V6.29017ZM3.96208 11.9352H12.2523C12.634 11.9352 12.875 11.6942 12.875 11.3125V7.67633C12.875 7.29463 12.634 7.04687 12.2523 7.04687H3.96208C3.58038 7.04687 3.33261 7.29463 3.33261 7.67633V11.3125C3.33261 11.6942 3.58038 11.9352 3.96208 11.9352ZM4.25672 11.1919C4.15628 11.1919 4.08261 11.1183 4.08261 11.0178V7.97097C4.08261 7.86383 4.15628 7.79017 4.25672 7.79017H11.9576C12.0581 7.79017 12.1317 7.86383 12.1317 7.97097V11.0178C12.1317 11.1183 12.0581 11.1919 11.9576 11.1919H4.25672ZM3.94869 9.28348H12.2656V8.54016H3.94869V9.28348Z" fill="black" fill-opacity="0.85"/>
</g>
<defs>
<clipPath id="clip0_62_35646">
<rect width="13.9219" height="11.5647" fill="white" transform="translate(1.14288 2.28571)"/>
</clipPath>
</defs>
</svg>
