<svg width="16" height="16" viewBox="0 0 16 16" fill="none" xmlns="http://www.w3.org/2000/svg">
<path d="M7.77391 2.20068H8.15527C9.16917 2.20068 10.1415 2.60346 10.8585 3.32039C11.5754 4.03733 11.9782 5.00971 11.9782 6.02361V9.7328H3.94965V6.02361C3.94965 5.52146 4.04857 5.02424 4.24078 4.56033C4.43298 4.09642 4.71469 3.67493 5.06983 3.31992C5.42496 2.96491 5.84656 2.68334 6.31053 2.4913C6.7745 2.29926 7.27176 2.20051 7.77391 2.20068Z" stroke="black" stroke-linecap="round" stroke-linejoin="round"/>
<path d="M7.96521 9.73347V2.20068" stroke="black" stroke-linecap="round" stroke-linejoin="round"/>
<path d="M3.95026 6.24036H11.9795" stroke="black" stroke-linecap="round" stroke-linejoin="round"/>
<path d="M10.2694 7.50018L9.63916 8.13042" stroke="black" stroke-linecap="round" stroke-linejoin="round"/>
<path d="M6.71813 3.94952L6.08856 4.5791" stroke="black" stroke-linecap="round" stroke-linejoin="round"/>
<path d="M2.20068 9.73346H13.7431" stroke="black" stroke-linecap="round" stroke-linejoin="round"/>
<path d="M2.20068 13.7993H13.7431" stroke="black" stroke-linecap="round" stroke-linejoin="round"/>
<path d="M13.2888 9.73346V13.7992" stroke="black" stroke-linecap="round" stroke-linejoin="round"/>
<path d="M11.5446 9.73346V13.7992" stroke="black" stroke-linecap="round" stroke-linejoin="round"/>
<path d="M9.74957 9.73346V13.7992" stroke="black" stroke-linecap="round" stroke-linejoin="round"/>
<path d="M7.96521 9.73346V13.7992" stroke="black" stroke-linecap="round" stroke-linejoin="round"/>
<path d="M6.22229 9.73346V13.7992" stroke="black" stroke-linecap="round" stroke-linejoin="round"/>
<path d="M4.45874 9.73346V13.7992" stroke="black" stroke-linecap="round" stroke-linejoin="round"/>
<path d="M2.69513 9.73346V13.7992" stroke="black" stroke-linecap="round" stroke-linejoin="round"/>
</svg>
