<svg width="16" height="16" viewBox="0 0 16 16" fill="none" xmlns="http://www.w3.org/2000/svg">
<g clip-path="url(#clip0_41_12923)">
<path d="M9.79954 8.99999C9.06621 7.66666 8.83887 7.33333 7.99954 7.33333C7.16021 7.33333 6.84221 7.83666 6.10887 9.16466C5.48087 10.3 4.21154 10.3947 3.89487 11.3587C3.83021 11.5353 3.79821 11.81 3.79954 12C3.79954 12.784 4.32421 13.3333 4.99954 13.3333C5.83887 13.3333 6.99954 12.6667 7.99954 12.6667C8.99954 12.6667 10.1602 13.3333 10.9995 13.3333C11.6749 13.3333 12.1995 12.7847 12.1995 12C12.1995 11.81 12.1669 11.5353 12.1022 11.3587C11.7855 10.3913 10.4275 10.1353 9.79954 8.99999Z" stroke="black" stroke-linecap="round" stroke-linejoin="round"/>
<path d="M13.4588 5.388C13.3732 5.35179 13.2811 5.3332 13.1881 5.33333H13.1781C12.6881 5.34133 12.1381 5.83333 11.8495 6.57733C11.5035 7.46733 11.6628 8.37733 12.2081 8.612C12.2941 8.64866 12.3861 8.66666 12.4788 8.66666C12.9715 8.66666 13.5288 8.172 13.8195 7.42266C14.1635 6.53266 14.0008 5.62266 13.4588 5.388Z" stroke="black" stroke-linecap="round" stroke-linejoin="round"/>
<path d="M6.31702 6.00001C6.35369 6.00001 6.38969 6.00001 6.42569 5.99267C7.05502 5.90734 7.44769 5.09534 7.30569 4.17801C7.17036 3.31334 6.60769 2.66667 6.01769 2.66667C5.98102 2.66667 5.94503 2.66667 5.90903 2.67401C5.27969 2.75934 4.88702 3.57134 5.02902 4.48867C5.16502 5.35067 5.72769 6.00001 6.31769 6.00001H6.31702Z" stroke="black" stroke-linecap="round" stroke-linejoin="round"/>
<path d="M10.9706 4.48867C11.1133 3.57134 10.7206 2.75934 10.0906 2.67401C10.0548 2.66905 10.0187 2.6666 9.98262 2.66667C9.39262 2.66667 8.83062 3.31334 8.69595 4.17801C8.55328 5.09534 8.94595 5.90734 9.57595 5.99267C9.61195 5.99734 9.64795 6.00001 9.68395 6.00001C10.274 6.00001 10.8373 5.35067 10.9706 4.48867Z" stroke="black" stroke-linecap="round" stroke-linejoin="round"/>
<path d="M3.79322 8.612C4.33722 8.37733 4.49588 7.466 4.15055 6.57733C3.85988 5.828 3.30322 5.33333 2.81122 5.33333C2.71788 5.33333 2.62655 5.35133 2.53988 5.38799C1.99588 5.62266 1.83722 6.53399 2.18255 7.42266C2.47322 8.17199 3.02988 8.66666 3.52188 8.66666C3.61522 8.66666 3.70655 8.64866 3.79322 8.612Z" stroke="black" stroke-linecap="round" stroke-linejoin="round"/>
</g>
<defs>
<clipPath id="clip0_41_12923">
<rect width="16" height="16" fill="white"/>
</clipPath>
</defs>
</svg>
