<svg width="16" height="16" viewBox="0 0 16 16" fill="none" xmlns="http://www.w3.org/2000/svg">
<g clip-path="url(#clip0_68_35725)">
<path d="M8.47908 13.8089C7.39432 14.1156 6.23846 14.0538 5.19261 13.6331C4.14677 13.2124 3.27003 12.4567 2.69977 11.4843C2.12952 10.5119 1.89797 9.37774 2.04141 8.25962C2.18485 7.1415 2.69517 6.10256 3.49241 5.30558L3.97241 4.82558C4.75433 4.04365 5.76941 3.53732 6.8644 3.38303C7.95939 3.22873 9.07486 3.43484 10.0424 3.97025L11.6337 2.40692C11.8872 2.15576 12.2277 2.01196 12.5844 2.00542C12.9411 1.99888 13.2867 2.1301 13.5491 2.37179C13.8116 2.61348 13.9708 2.94704 13.9937 3.30311C14.0165 3.65918 13.9012 4.01034 13.6717 4.28358L13.5944 4.36758L12.0304 5.95891C12.5473 6.89321 12.7577 7.96627 12.6319 9.02658C12.506 10.0869 12.0503 11.0809 11.3291 11.8682" stroke="black" stroke-linecap="round" stroke-linejoin="round"/>
<path d="M7.33331 12C7.33331 12.2626 7.38504 12.5227 7.48555 12.7654C7.58606 13.008 7.73338 13.2285 7.9191 13.4142C8.10482 13.5999 8.32529 13.7472 8.56795 13.8478C8.8106 13.9483 9.07067 14 9.33331 14C9.59596 14 9.85603 13.9483 10.0987 13.8478C10.3413 13.7472 10.5618 13.5999 10.7475 13.4142C10.9332 13.2285 11.0806 13.008 11.1811 12.7654C11.2816 12.5227 11.3333 12.2626 11.3333 12C11.3333 11.7374 11.2816 11.4773 11.1811 11.2346C11.0806 10.992 10.9332 10.7715 10.7475 10.5858C10.5618 10.4001 10.3413 10.2528 10.0987 10.1522C9.85603 10.0517 9.59596 10 9.33331 10C9.07067 10 8.8106 10.0517 8.56795 10.1522C8.32529 10.2528 8.10482 10.4001 7.9191 10.5858C7.73338 10.7715 7.58606 10.992 7.48555 11.2346C7.38504 11.4773 7.33331 11.7374 7.33331 12Z" stroke="black" stroke-linecap="round" stroke-linejoin="round"/>
<path d="M6.2005 3.5332L12.4672 9.79987" stroke="black" stroke-linecap="round" stroke-linejoin="round"/>
</g>
<defs>
<clipPath id="clip0_68_35725">
<rect width="16" height="16" fill="white"/>
</clipPath>
</defs>
</svg>
