<svg width="16" height="16" viewBox="0 0 16 16" fill="none" xmlns="http://www.w3.org/2000/svg">
<g clip-path="url(#clip0_68_35736)">
<path d="M6.66669 6.66665C6.66669 7.02027 6.80716 7.35941 7.05721 7.60946C7.30726 7.8595 7.6464 7.99998 8.00002 7.99998C8.35364 7.99998 8.69278 7.8595 8.94283 7.60946C9.19288 7.35941 9.33335 7.02027 9.33335 6.66665C9.33335 6.31302 9.19288 5.97389 8.94283 5.72384C8.69278 5.47379 8.35364 5.33331 8.00002 5.33331C7.6464 5.33331 7.30726 5.47379 7.05721 5.72384C6.80716 5.97389 6.66669 6.31302 6.66669 6.66665Z" stroke="black" stroke-linecap="round" stroke-linejoin="round"/>
<path d="M6.66669 9.33333C6.66669 9.68696 6.80716 10.0261 7.05721 10.2761C7.30726 10.5262 7.6464 10.6667 8.00002 10.6667C8.35364 10.6667 8.69278 10.5262 8.94283 10.2761C9.19288 10.0261 9.33335 9.68696 9.33335 9.33333C9.33335 8.97971 9.19288 8.64057 8.94283 8.39052C8.69278 8.14048 8.35364 8 8.00002 8C7.6464 8 7.30726 8.14048 7.05721 8.39052C6.80716 8.64057 6.66669 8.97971 6.66669 9.33333Z" stroke="black" stroke-linecap="round" stroke-linejoin="round"/>
<path d="M2.66669 8.00002C2.66669 9.41451 3.22859 10.7711 4.22878 11.7713C5.22898 12.7715 6.58553 13.3334 8.00002 13.3334C9.41451 13.3334 10.7711 12.7715 11.7713 11.7713C12.7715 10.7711 13.3334 9.41451 13.3334 8.00002C13.3334 6.58553 12.7715 5.22898 11.7713 4.22878C10.7711 3.22859 9.41451 2.66669 8.00002 2.66669C6.58553 2.66669 5.22898 3.22859 4.22878 4.22878C3.22859 5.22898 2.66669 6.58553 2.66669 8.00002Z" stroke="black" stroke-linecap="round" stroke-linejoin="round"/>
</g>
<defs>
<clipPath id="clip0_68_35736">
<rect width="16" height="16" fill="white"/>
</clipPath>
</defs>
</svg>
