<svg width="16" height="16" viewBox="0 0 16 16" fill="none" xmlns="http://www.w3.org/2000/svg">
<g clip-path="url(#clip0_64_35691)">
<path d="M1.33331 13.333C1.48476 13.544 1.68529 13.715 1.9176 13.8311C2.1499 13.9473 2.40698 14.0051 2.66665 13.9997C2.92631 14.0051 3.1834 13.9473 3.4157 13.8311C3.648 13.715 3.84853 13.544 3.99998 13.333C4.15143 13.122 4.35196 12.9511 4.58426 12.8349C4.81656 12.7188 5.07365 12.6609 5.33331 12.6664C5.59298 12.6609 5.85006 12.7188 6.08236 12.8349C6.31467 12.9511 6.5152 13.122 6.66665 13.333C6.81809 13.544 7.01863 13.715 7.25093 13.8311C7.48323 13.9473 7.74032 14.0051 7.99998 13.9997C8.25964 14.0051 8.51673 13.9473 8.74903 13.8311C8.98133 13.715 9.18187 13.544 9.33331 13.333C9.48476 13.122 9.68529 12.9511 9.9176 12.8349C10.1499 12.7188 10.407 12.6609 10.6666 12.6664C10.9263 12.6609 11.1834 12.7188 11.4157 12.8349C11.648 12.9511 11.8485 13.122 12 13.333C12.1514 13.544 12.352 13.715 12.5843 13.8311C12.8166 13.9473 13.0736 14.0051 13.3333 13.9997C13.593 14.0051 13.8501 13.9473 14.0824 13.8311C14.3147 13.715 14.5152 13.544 14.6666 13.333" stroke="black" stroke-linecap="round" stroke-linejoin="round"/>
<path d="M1.33331 10.6663C1.48476 10.8773 1.68529 11.0483 1.9176 11.1644C2.1499 11.2806 2.40698 11.3385 2.66665 11.333C2.92631 11.3385 3.1834 11.2806 3.4157 11.1644C3.648 11.0483 3.84853 10.8773 3.99998 10.6663C4.15143 10.4554 4.35196 10.2844 4.58426 10.1682C4.81656 10.0521 5.07365 9.99424 5.33331 9.99968C5.59298 9.99424 5.85006 10.0521 6.08236 10.1682C6.31467 10.2844 6.5152 10.4554 6.66665 10.6663C6.81809 10.8773 7.01863 11.0483 7.25093 11.1644C7.48323 11.2806 7.74032 11.3385 7.99998 11.333C8.25964 11.3385 8.51673 11.2806 8.74903 11.1644C8.98133 11.0483 9.18187 10.8773 9.33331 10.6663C9.48476 10.4554 9.68529 10.2844 9.9176 10.1682C10.1499 10.0521 10.407 9.99424 10.6666 9.99968C10.9263 9.99424 11.1834 10.0521 11.4157 10.1682C11.648 10.2844 11.8485 10.4554 12 10.6663C12.1514 10.8773 12.352 11.0483 12.5843 11.1644C12.8166 11.2806 13.0736 11.3385 13.3333 11.333C13.593 11.3385 13.8501 11.2806 14.0824 11.1644C14.3147 11.0483 14.5152 10.8773 14.6666 10.6663" stroke="black" stroke-linecap="round" stroke-linejoin="round"/>
<path d="M10 8V3C10 2.73478 10.1054 2.48043 10.2929 2.29289C10.4804 2.10536 10.7348 2 11 2C11.2652 2 11.5196 2.10536 11.7071 2.29289C11.8946 2.48043 12 2.73478 12 3" stroke="black" stroke-linecap="round" stroke-linejoin="round"/>
<path d="M6 8V3C6 2.73478 5.89464 2.48043 5.70711 2.29289C5.51957 2.10536 5.26522 2 5 2C4.73478 2 4.48043 2.10536 4.29289 2.29289C4.10536 2.48043 4 2.73478 4 3" stroke="black" stroke-linecap="round" stroke-linejoin="round"/>
<path d="M10 3.33331H6" stroke="black" stroke-linecap="round" stroke-linejoin="round"/>
<path d="M6 6.66669H10" stroke="black" stroke-linecap="round" stroke-linejoin="round"/>
</g>
<defs>
<clipPath id="clip0_64_35691">
<rect width="16" height="16" fill="white"/>
</clipPath>
</defs>
</svg>
