<svg width="16" height="16" viewBox="0 0 16 16" fill="none" xmlns="http://www.w3.org/2000/svg">
<g clip-path="url(#clip0_60_2763)">
<path d="M3.33331 3.33333C3.33331 2.97971 3.47379 2.64057 3.72384 2.39052C3.97389 2.14048 4.31302 2 4.66665 2H11.3333C11.6869 2 12.0261 2.14048 12.2761 2.39052C12.5262 2.64057 12.6666 2.97971 12.6666 3.33333V12.6667C12.6666 13.0203 12.5262 13.3594 12.2761 13.6095C12.0261 13.8595 11.6869 14 11.3333 14H4.66665C4.31302 14 3.97389 13.8595 3.72384 13.6095C3.47379 13.3594 3.33331 13.0203 3.33331 12.6667V3.33333Z" stroke="black" stroke-linecap="round" stroke-linejoin="round"/>
<path d="M3.33331 6.66669H12.6666" stroke="black" stroke-linecap="round" stroke-linejoin="round"/>
<path d="M6 8.66669V10.6667" stroke="black" stroke-linecap="round" stroke-linejoin="round"/>
<path d="M6 4V4.66667" stroke="black" stroke-linecap="round" stroke-linejoin="round"/>
</g>
<defs>
<clipPath id="clip0_60_2763">
<rect width="16" height="16" fill="white"/>
</clipPath>
</defs>
</svg>
