<svg width="16" height="17" viewBox="0 0 16 17" fill="none" xmlns="http://www.w3.org/2000/svg">
<path d="M8.86927 1.58862V2.27298C8.86927 2.27298 8.21206 2.55931 7.25495 2.3532C6.86599 2.2643 6.45994 2.28567 6.08247 2.41491C5.94859 2.46138 5.81961 2.52091 5.6974 2.59264L5.33331 1.99652C5.55201 1.82723 5.80264 1.70384 6.07017 1.63375C6.3377 1.56366 6.61664 1.54831 6.89025 1.58862C7.83872 1.71945 8.86927 1.58862 8.86927 1.58862Z" stroke="black" stroke-width="1.06667" stroke-linecap="round" stroke-linejoin="round"/>
<path d="M8.53333 4.76666V2.63333" stroke="black" stroke-width="1.06667" stroke-linecap="round" stroke-linejoin="round"/>
<path d="M8.52894 4.74908H7.9427C7.4688 4.74497 7.00469 4.8839 6.61101 5.14773C6.35202 5.31576 6.14047 5.54741 5.99656 5.82053C5.85265 6.09366 5.7812 6.39913 5.78903 6.70774V14.5597C5.78903 14.5597 5.7588 15.2508 6.39687 15.2564C7.03495 15.2619 8.52894 15.2564 8.52894 15.2564" stroke="black" stroke-width="1.06667" stroke-linecap="round" stroke-linejoin="round"/>
<path d="M8.53769 4.74908H9.12146C9.59535 4.74497 10.0595 4.8839 10.4532 5.14773C10.7121 5.31576 10.9237 5.54741 11.0676 5.82053C11.2115 6.09366 11.283 6.39913 11.2751 6.70774V14.5597C11.2751 14.5597 11.3054 15.2508 10.6673 15.2564C10.0292 15.2619 8.53522 15.2564 8.53522 15.2564" stroke="black" stroke-width="1.06667" stroke-linecap="round" stroke-linejoin="round"/>
<path d="M5.78912 10.0036H11.2776" stroke="black" stroke-width="1.06667" stroke-linecap="round" stroke-linejoin="round"/>
<path d="M11.2776 12.5301H5.78912" stroke="black" stroke-width="1.06667" stroke-linecap="round" stroke-linejoin="round"/>
</svg>
