<svg width="16" height="16" viewBox="0 0 16 16" fill="none" xmlns="http://www.w3.org/2000/svg">
<path d="M7.99978 13.6469C11.1186 13.6469 13.647 11.1186 13.647 7.99975C13.647 4.8809 11.1186 2.35257 7.99978 2.35257C4.88093 2.35257 2.3526 4.8809 2.3526 7.99975C2.3526 11.1186 4.88093 13.6469 7.99978 13.6469Z" stroke="black" stroke-miterlimit="10"/>
<path d="M7.99978 8.92526C8.51092 8.92526 8.92529 8.51089 8.92529 7.99975C8.92529 7.48861 8.51092 7.07425 7.99978 7.07425C7.48864 7.07425 7.07428 7.48861 7.07428 7.99975C7.07428 8.51089 7.48864 8.92526 7.99978 8.92526Z" stroke="black" stroke-miterlimit="10"/>
<path d="M11.7232 8.46273C11.979 8.46273 12.1862 8.25544 12.1862 7.99974C12.1862 7.74403 11.979 7.53674 11.7232 7.53674C11.4675 7.53674 11.2603 7.74403 11.2603 7.99974C11.2603 8.25544 11.4675 8.46273 11.7232 8.46273Z" stroke="black" stroke-miterlimit="10"/>
<path d="M4.3548 6.09168C4.75451 5.33194 5.38104 4.71564 6.14726 4.32849" stroke="black" stroke-miterlimit="10" stroke-linecap="round"/>
<path d="M6.14727 11.674C5.38681 11.2891 4.76396 10.6786 4.36407 9.9259" stroke="black" stroke-miterlimit="10" stroke-linecap="round"/>
<path d="M11.6359 9.9259C11.236 10.6786 10.6132 11.2891 9.85272 11.674" stroke="black" stroke-miterlimit="10" stroke-linecap="round"/>
<path d="M9.85175 4.32556C10.6005 4.70434 11.2163 5.30194 11.6174 6.03899" stroke="black" stroke-miterlimit="10" stroke-linecap="round"/>
</svg>
