<svg width="16" height="16" viewBox="0 0 16 16" fill="none" xmlns="http://www.w3.org/2000/svg">
<g clip-path="url(#clip0_41_10601)">
<path d="M2 6C2 5.64638 2.14048 5.30724 2.39052 5.05719C2.64057 4.80714 2.97971 4.66667 3.33333 4.66667H12.6667C13.0203 4.66667 13.3594 4.80714 13.6095 5.05719C13.8595 5.30724 14 5.64638 14 6V12C14 12.3536 13.8595 12.6928 13.6095 12.9428C13.3594 13.1929 13.0203 13.3333 12.6667 13.3333H3.33333C2.97971 13.3333 2.64057 13.1929 2.39052 12.9428C2.14048 12.6928 2 12.3536 2 12V6Z" stroke="black" stroke-linecap="round" stroke-linejoin="round"/>
<path d="M10.6666 2L7.99998 4.66667L5.33331 2" stroke="black" stroke-linecap="round" stroke-linejoin="round"/>
</g>
<defs>
<clipPath id="clip0_41_10601">
<rect width="16" height="16" fill="white"/>
</clipPath>
</defs>
</svg>
